<?xml version="1.0" encoding="UTF-8"?>
<svg xmlns="http://www.w3.org/2000/svg" xmlns:xlink="http://www.w3.org/1999/xlink" width="1920" height="1080" viewBox="0 0 1920 1080">
<defs>
<g>
<g id="glyph-0-0">
<path d="M 3.816406 -8.816406 C 3.816406 -6.011719 4.367188 -3.9375 5.46875 -2.597656 C 6.570312 -1.257812 7.925781 -0.585938 9.53125 -0.585938 C 11.101562 -0.585938 12.445312 -1.238281 13.5625 -2.546875 C 14.675781 -3.851562 15.234375 -5.941406 15.234375 -8.816406 C 15.234375 -11.722656 14.671875 -13.824219 13.542969 -15.117188 C 12.414062 -16.410156 11.078125 -17.058594 9.53125 -17.058594 C 7.933594 -17.058594 6.582031 -16.386719 5.476562 -15.046875 C 4.367188 -13.703125 3.816406 -11.628906 3.816406 -8.816406 Z M 0.792969 -8.816406 C 0.792969 -11.664062 1.6875 -13.945312 3.476562 -15.664062 C 5.117188 -17.234375 7.136719 -18.019531 9.53125 -18.019531 C 11.890625 -18.019531 13.898438 -17.242188 15.546875 -15.691406 C 17.359375 -13.980469 18.269531 -11.6875 18.269531 -8.816406 C 18.269531 -6.542969 17.691406 -4.617188 16.535156 -3.046875 C 15.285156 -1.355469 13.515625 -0.285156 11.222656 0.15625 C 12.300781 1.710938 13.601562 2.8125 15.128906 3.464844 C 15.988281 3.828125 17.148438 4.097656 18.605469 4.269531 L 18.605469 4.753906 L 17.511719 4.753906 C 16.070312 4.753906 14.792969 4.636719 13.679688 4.402344 C 12.5625 4.167969 11.550781 3.8125 10.636719 3.332031 C 9.726562 2.863281 8.882812 2.214844 8.105469 1.378906 C 7.328125 0.546875 6.898438 0.109375 6.808594 0.0664062 L 6.472656 -0.0898438 C 4.996094 -0.777344 3.855469 -1.558594 3.046875 -2.433594 C 1.546875 -4.058594 0.792969 -6.183594 0.792969 -8.816406 Z "/>
</g>
<g id="glyph-0-1">
<path d="M 4.128906 -12.058594 L 4.128906 -3.722656 C 4.128906 -3.132812 4.210938 -2.660156 4.375 -2.304688 C 4.695312 -1.644531 5.285156 -1.316406 6.144531 -1.316406 C 6.734375 -1.316406 7.3125 -1.511719 7.878906 -1.902344 C 8.199219 -2.117188 8.523438 -2.417969 8.855469 -2.800781 L 8.855469 -9.933594 C 8.855469 -10.601562 8.722656 -11.042969 8.464844 -11.25 C 8.203125 -11.457031 7.683594 -11.585938 6.902344 -11.628906 L 6.902344 -12.058594 L 11.105469 -12.058594 L 11.105469 -2.890625 C 11.105469 -2.300781 11.214844 -1.894531 11.425781 -1.671875 C 11.636719 -1.453125 12.085938 -1.355469 12.773438 -1.378906 L 12.773438 -1.015625 C 12.296875 -0.886719 11.945312 -0.789062 11.71875 -0.722656 C 11.492188 -0.65625 11.117188 -0.539062 10.585938 -0.363281 C 10.359375 -0.285156 9.867188 -0.101562 9.101562 0.195312 C 9.058594 0.195312 9.03125 0.175781 9.023438 0.136719 C 9.015625 0.0976562 9.011719 0.0507812 9.011719 0 L 9.011719 -2.097656 C 8.421875 -1.394531 7.882812 -0.871094 7.394531 -0.535156 C 6.65625 -0.0117188 5.875 0.246094 5.050781 0.246094 C 4.296875 0.246094 3.585938 -0.0234375 2.917969 -0.558594 C 2.238281 -1.089844 1.902344 -1.980469 1.902344 -3.230469 L 1.902344 -9.988281 C 1.902344 -10.683594 1.753906 -11.144531 1.457031 -11.378906 C 1.265625 -11.527344 0.859375 -11.632812 0.234375 -11.691406 L 0.234375 -12.058594 Z "/>
</g>
<g id="glyph-0-2">
<path d="M 7.644531 -7.214844 C 6.644531 -6.882812 5.820312 -6.519531 5.167969 -6.121094 C 3.917969 -5.347656 3.292969 -4.46875 3.292969 -3.488281 C 3.292969 -2.699219 3.554688 -2.117188 4.074219 -1.746094 C 4.414062 -1.503906 4.792969 -1.378906 5.207031 -1.378906 C 5.78125 -1.378906 6.332031 -1.539062 6.855469 -1.863281 C 7.378906 -2.183594 7.644531 -2.589844 7.644531 -3.085938 Z M 0.976562 -2.589844 C 0.976562 -3.847656 1.605469 -4.898438 2.863281 -5.742188 C 3.664062 -6.261719 5.257812 -6.96875 7.644531 -7.863281 L 7.644531 -8.972656 C 7.644531 -9.855469 7.554688 -10.472656 7.382812 -10.820312 C 7.085938 -11.402344 6.476562 -11.691406 5.546875 -11.691406 C 5.105469 -11.691406 4.683594 -11.578125 4.285156 -11.355469 C 3.886719 -11.121094 3.683594 -10.796875 3.683594 -10.390625 C 3.683594 -10.285156 3.707031 -10.109375 3.75 -9.863281 C 3.792969 -9.617188 3.816406 -9.457031 3.816406 -9.386719 C 3.816406 -8.902344 3.65625 -8.5625 3.332031 -8.371094 C 3.152344 -8.257812 2.933594 -8.203125 2.683594 -8.203125 C 2.292969 -8.203125 1.992188 -8.332031 1.785156 -8.585938 C 1.574219 -8.84375 1.472656 -9.128906 1.472656 -9.441406 C 1.472656 -10.046875 1.847656 -10.683594 2.597656 -11.347656 C 3.347656 -12.011719 4.449219 -12.34375 5.898438 -12.34375 C 7.582031 -12.34375 8.722656 -11.796875 9.324219 -10.703125 C 9.644531 -10.105469 9.804688 -9.230469 9.804688 -8.085938 L 9.804688 -2.863281 C 9.804688 -2.359375 9.839844 -2.015625 9.910156 -1.824219 C 10.023438 -1.484375 10.257812 -1.316406 10.613281 -1.316406 C 10.8125 -1.316406 10.976562 -1.34375 11.105469 -1.40625 C 11.238281 -1.46875 11.460938 -1.613281 11.785156 -1.847656 L 11.785156 -1.171875 C 11.507812 -0.832031 11.207031 -0.554688 10.886719 -0.339844 C 10.398438 -0.0078125 9.90625 0.15625 9.402344 0.15625 C 8.8125 0.15625 8.382812 -0.0351562 8.117188 -0.417969 C 7.851562 -0.800781 7.707031 -1.253906 7.683594 -1.785156 C 7.023438 -1.210938 6.457031 -0.785156 5.988281 -0.507812 C 5.199219 -0.0390625 4.449219 0.195312 3.738281 0.195312 C 2.992188 0.195312 2.34375 -0.0664062 1.796875 -0.59375 C 1.25 -1.117188 0.976562 -1.785156 0.976562 -2.589844 Z "/>
</g>
<g id="glyph-0-3">
<path d="M 6.316406 -12.304688 C 6.949219 -12.304688 7.53125 -12.164062 8.058594 -11.886719 C 8.40625 -11.707031 8.742188 -11.453125 9.0625 -11.132812 L 9.0625 -15.273438 C 9.0625 -15.804688 9.003906 -16.167969 8.886719 -16.367188 C 8.769531 -16.566406 8.488281 -16.667969 8.046875 -16.667969 C 7.941406 -16.667969 7.851562 -16.664062 7.773438 -16.652344 C 7.695312 -16.644531 7.523438 -16.628906 7.253906 -16.601562 L 7.253906 -17.03125 L 8.320312 -17.304688 C 8.710938 -17.410156 9.101562 -17.515625 9.492188 -17.628906 C 9.882812 -17.742188 10.226562 -17.851562 10.519531 -17.957031 C 10.660156 -18 10.890625 -18.082031 11.210938 -18.203125 L 11.289062 -18.175781 L 11.261719 -16.808594 C 11.253906 -16.316406 11.246094 -15.804688 11.238281 -15.28125 C 11.230469 -14.753906 11.222656 -14.234375 11.222656 -13.722656 L 11.199219 -3.085938 C 11.199219 -2.523438 11.265625 -2.125 11.40625 -1.902344 C 11.546875 -1.675781 11.914062 -1.5625 12.511719 -1.5625 C 12.609375 -1.5625 12.703125 -1.566406 12.800781 -1.570312 C 12.894531 -1.574219 12.992188 -1.585938 13.085938 -1.601562 L 13.085938 -1.171875 C 13.035156 -1.15625 12.40625 -0.9375 11.199219 -0.519531 L 9.152344 0.246094 L 9.0625 0.128906 L 9.0625 -1.472656 C 8.578125 -0.941406 8.15625 -0.5625 7.800781 -0.339844 C 7.167969 0.0507812 6.433594 0.246094 5.597656 0.246094 C 4.121094 0.246094 2.925781 -0.324219 2.011719 -1.464844 C 1.097656 -2.605469 0.636719 -3.929688 0.636719 -5.429688 C 0.636719 -7.3125 1.1875 -8.929688 2.285156 -10.28125 C 3.382812 -11.628906 4.726562 -12.304688 6.316406 -12.304688 Z M 6.796875 -1.160156 C 7.472656 -1.160156 8.019531 -1.359375 8.4375 -1.757812 C 8.855469 -2.15625 9.0625 -2.535156 9.0625 -2.890625 L 9.0625 -8.476562 C 9.0625 -9.605469 8.761719 -10.402344 8.15625 -10.867188 C 7.554688 -11.332031 6.964844 -11.5625 6.394531 -11.5625 C 5.300781 -11.5625 4.449219 -11.078125 3.839844 -10.109375 C 3.234375 -9.140625 2.929688 -7.953125 2.929688 -6.535156 C 2.929688 -5.136719 3.253906 -3.894531 3.898438 -2.800781 C 4.546875 -1.707031 5.511719 -1.160156 6.796875 -1.160156 Z "/>
</g>
<g id="glyph-0-4">
<path d="M 0.117188 -0.429688 C 0.914062 -0.5 1.445312 -0.640625 1.707031 -0.851562 C 1.964844 -1.066406 2.097656 -1.519531 2.097656 -2.214844 L 2.097656 -8.085938 C 2.097656 -8.945312 2.015625 -9.558594 1.855469 -9.929688 C 1.695312 -10.296875 1.402344 -10.480469 0.976562 -10.480469 C 0.890625 -10.480469 0.773438 -10.472656 0.632812 -10.449219 C 0.488281 -10.425781 0.339844 -10.398438 0.183594 -10.363281 L 0.183594 -10.792969 C 0.675781 -10.96875 1.183594 -11.144531 1.707031 -11.328125 C 2.226562 -11.511719 2.585938 -11.640625 2.785156 -11.71875 C 3.21875 -11.882812 3.667969 -12.070312 4.128906 -12.277344 C 4.1875 -12.277344 4.226562 -12.257812 4.238281 -12.214844 C 4.25 -12.171875 4.257812 -12.078125 4.257812 -11.941406 L 4.257812 -9.804688 C 4.8125 -10.578125 5.347656 -11.179688 5.867188 -11.613281 C 6.382812 -12.046875 6.917969 -12.265625 7.472656 -12.265625 C 7.917969 -12.265625 8.277344 -12.132812 8.554688 -11.867188 C 8.832031 -11.601562 8.972656 -11.273438 8.972656 -10.871094 C 8.972656 -10.515625 8.863281 -10.21875 8.652344 -9.972656 C 8.441406 -9.730469 8.171875 -9.609375 7.851562 -9.609375 C 7.523438 -9.609375 7.191406 -9.761719 6.855469 -10.066406 C 6.519531 -10.371094 6.257812 -10.519531 6.066406 -10.519531 C 5.761719 -10.519531 5.390625 -10.277344 4.949219 -9.785156 C 4.503906 -9.292969 4.285156 -8.789062 4.285156 -8.269531 L 4.285156 -2.394531 C 4.285156 -1.648438 4.457031 -1.128906 4.804688 -0.839844 C 5.152344 -0.550781 5.730469 -0.414062 6.535156 -0.429688 L 6.535156 0 L 0.117188 0 Z "/>
</g>
<g id="glyph-0-5">
<path d="M 6.785156 -12.003906 L 6.785156 -11.066406 L 4.128906 -11.066406 L 4.101562 -3.566406 C 4.101562 -2.90625 4.15625 -2.410156 4.269531 -2.070312 C 4.480469 -1.472656 4.886719 -1.171875 5.496094 -1.171875 C 5.808594 -1.171875 6.078125 -1.246094 6.308594 -1.394531 C 6.539062 -1.542969 6.800781 -1.773438 7.097656 -2.097656 L 7.433594 -1.808594 L 7.148438 -1.417969 C 6.695312 -0.8125 6.21875 -0.382812 5.714844 -0.128906 C 5.210938 0.121094 4.726562 0.246094 4.257812 0.246094 C 3.234375 0.246094 2.539062 -0.207031 2.175781 -1.121094 C 1.976562 -1.613281 1.875 -2.300781 1.875 -3.175781 L 1.875 -11.066406 L 0.457031 -11.066406 C 0.414062 -11.09375 0.378906 -11.121094 0.359375 -11.144531 C 0.335938 -11.171875 0.324219 -11.207031 0.324219 -11.25 C 0.324219 -11.335938 0.34375 -11.402344 0.382812 -11.453125 C 0.421875 -11.5 0.546875 -11.609375 0.753906 -11.785156 C 1.355469 -12.277344 1.785156 -12.679688 2.050781 -12.988281 C 2.316406 -13.296875 2.9375 -14.109375 3.917969 -15.429688 C 4.03125 -15.429688 4.097656 -15.421875 4.121094 -15.402344 C 4.144531 -15.386719 4.152344 -15.320312 4.152344 -15.207031 L 4.152344 -12.003906 Z "/>
</g>
<g id="glyph-0-6">
<path d="M 2.1875 -16.808594 C 2.1875 -17.183594 2.316406 -17.503906 2.578125 -17.773438 C 2.839844 -18.042969 3.160156 -18.175781 3.542969 -18.175781 C 3.914062 -18.175781 4.234375 -18.046875 4.5 -17.78125 C 4.765625 -17.515625 4.894531 -17.191406 4.894531 -16.808594 C 4.894531 -16.4375 4.761719 -16.117188 4.5 -15.851562 C 4.234375 -15.585938 3.914062 -15.457031 3.542969 -15.457031 C 3.160156 -15.457031 2.839844 -15.589844 2.578125 -15.851562 C 2.316406 -16.117188 2.1875 -16.4375 2.1875 -16.808594 Z M 0.519531 -0.363281 C 1.449219 -0.449219 2.035156 -0.609375 2.277344 -0.839844 C 2.519531 -1.070312 2.644531 -1.691406 2.644531 -2.707031 L 2.644531 -8.917969 C 2.644531 -9.484375 2.605469 -9.875 2.527344 -10.089844 C 2.394531 -10.445312 2.121094 -10.625 1.707031 -10.625 C 1.609375 -10.625 1.515625 -10.617188 1.425781 -10.597656 C 1.335938 -10.582031 1.070312 -10.511719 0.636719 -10.390625 L 0.636719 -10.792969 L 1.199219 -10.976562 C 2.71875 -11.472656 3.777344 -11.84375 4.375 -12.097656 C 4.617188 -12.199219 4.773438 -12.253906 4.84375 -12.253906 C 4.859375 -12.191406 4.871094 -12.125 4.871094 -12.058594 L 4.871094 -2.707031 C 4.871094 -1.71875 4.988281 -1.097656 5.226562 -0.847656 C 5.464844 -0.59375 6.007812 -0.433594 6.847656 -0.363281 L 6.847656 0 L 0.519531 0 Z "/>
</g>
<g id="glyph-0-7">
<path d="M 6.628906 -12.277344 C 7.714844 -12.277344 8.648438 -12 9.433594 -11.4375 C 10.21875 -10.878906 10.613281 -10.265625 10.613281 -9.597656 C 10.613281 -9.308594 10.511719 -9.042969 10.3125 -8.796875 C 10.113281 -8.546875 9.804688 -8.425781 9.386719 -8.425781 C 9.082031 -8.425781 8.816406 -8.527344 8.585938 -8.738281 C 8.355469 -8.945312 8.191406 -9.25 8.085938 -9.648438 L 7.929688 -10.273438 C 7.816406 -10.734375 7.621094 -11.058594 7.34375 -11.25 C 7.058594 -11.433594 6.679688 -11.523438 6.210938 -11.523438 C 5.222656 -11.523438 4.386719 -11.089844 3.703125 -10.226562 C 3.023438 -9.363281 2.683594 -8.214844 2.683594 -6.785156 C 2.683594 -5.472656 3.058594 -4.296875 3.808594 -3.253906 C 4.558594 -2.214844 5.574219 -1.691406 6.847656 -1.691406 C 7.75 -1.691406 8.554688 -1.988281 9.257812 -2.578125 C 9.65625 -2.917969 10.109375 -3.453125 10.613281 -4.191406 L 10.976562 -3.972656 C 10.480469 -2.929688 9.960938 -2.105469 9.414062 -1.496094 C 8.363281 -0.332031 7.148438 0.246094 5.769531 0.246094 C 4.414062 0.246094 3.214844 -0.285156 2.175781 -1.355469 C 1.132812 -2.421875 0.613281 -3.871094 0.613281 -5.703125 C 0.613281 -7.5 1.179688 -9.046875 2.316406 -10.339844 C 3.453125 -11.632812 4.890625 -12.277344 6.628906 -12.277344 Z "/>
</g>
<g id="glyph-0-8">
<path d="M 1.378906 -4.101562 L 1.808594 -4.101562 C 2.007812 -3.113281 2.277344 -2.351562 2.617188 -1.824219 C 3.226562 -0.851562 4.113281 -0.363281 5.285156 -0.363281 C 5.9375 -0.363281 6.453125 -0.542969 6.828125 -0.90625 C 7.207031 -1.265625 7.394531 -1.730469 7.394531 -2.304688 C 7.394531 -2.667969 7.289062 -3.019531 7.070312 -3.359375 C 6.851562 -3.699219 6.472656 -4.027344 5.925781 -4.347656 L 4.464844 -5.183594 C 3.398438 -5.753906 2.613281 -6.332031 2.109375 -6.914062 C 1.605469 -7.496094 1.355469 -8.179688 1.355469 -8.972656 C 1.355469 -9.945312 1.703125 -10.742188 2.394531 -11.367188 C 3.089844 -11.992188 3.960938 -12.304688 5.011719 -12.304688 C 5.472656 -12.304688 5.980469 -12.21875 6.53125 -12.042969 C 7.082031 -11.871094 7.390625 -11.785156 7.460938 -11.785156 C 7.617188 -11.785156 7.730469 -11.804688 7.800781 -11.847656 C 7.871094 -11.890625 7.929688 -11.960938 7.980469 -12.058594 L 8.292969 -12.058594 L 8.386719 -8.425781 L 7.980469 -8.425781 C 7.808594 -9.265625 7.574219 -9.921875 7.277344 -10.390625 C 6.738281 -11.257812 5.964844 -11.691406 4.949219 -11.691406 C 4.339844 -11.691406 3.863281 -11.507812 3.515625 -11.132812 C 3.167969 -10.757812 2.996094 -10.320312 2.996094 -9.816406 C 2.996094 -9.019531 3.59375 -8.308594 4.792969 -7.683594 L 6.511719 -6.757812 C 8.359375 -5.75 9.285156 -4.578125 9.285156 -3.242188 C 9.285156 -2.21875 8.898438 -1.378906 8.132812 -0.730469 C 7.363281 -0.078125 6.359375 0.246094 5.117188 0.246094 C 4.597656 0.246094 4.007812 0.160156 3.347656 -0.0117188 C 2.6875 -0.1875 2.296875 -0.273438 2.175781 -0.273438 C 2.070312 -0.273438 1.980469 -0.238281 1.902344 -0.164062 C 1.824219 -0.0898438 1.761719 0 1.71875 0.105469 L 1.378906 0.105469 Z "/>
</g>
</g>
</defs>
<g fill="rgb(0%, 0%, 0%)" fill-opacity="1">
<use xlink:href="#glyph-0-0" x="30" y="40"/>
<use xlink:href="#glyph-0-1" x="49" y="40"/>
<use xlink:href="#glyph-0-2" x="62" y="40"/>
<use xlink:href="#glyph-0-3" x="74" y="40"/>
<use xlink:href="#glyph-0-4" x="87" y="40"/>
<use xlink:href="#glyph-0-2" x="96" y="40"/>
<use xlink:href="#glyph-0-5" x="108" y="40"/>
<use xlink:href="#glyph-0-6" x="115" y="40"/>
<use xlink:href="#glyph-0-7" x="122" y="40"/>
<use xlink:href="#glyph-0-8" x="134" y="40"/>
</g>
</svg>
